# This file uses centimeters as units for non-parametric coordinates.

mtllib cube2.mtl
g default
v -0.500000 -0.500000 0.500000
v 0.500000 -0.500000 0.500000
v -0.500000 0.500000 0.500000
v 0.500000 0.500000 0.500000
v -0.500000 0.500000 -0.500000
v 0.500000 0.500000 -0.500000
v -0.500000 -0.500000 -0.500000
v 0.500000 -0.500000 -0.500000
vt 0.252288 0.001926
vt 0.503719 0.001891
vt 0.747560 0.003169
vt 0.504629 0.251573
vt 0.252498 0.250724
vt 0.997560 0.253169
vt 0.503199 0.250023
vt 0.502498 0.500724
vt 0.503199 0.500023
vt 0.753199 0.500023
vt 0.754629 0.001573
vt 0.754629 0.251573
vt 0.002288 0.001926
vt 0.002288 0.251926
vt 0.753199 0.250023
vt 0.504629 0.001573
vt 0.252498 0.500724
vt 0.253719 0.001891
vt 0.502498 0.250724
vt 0.747560 0.253169
vt 0.503719 0.251891
vt 0.997560 0.003169
vt 0.253719 0.251891
vt 0.252288 0.251926
vn 0.000000 0.000000 1.000000
vn 0.000000 0.000000 1.000000
vn 0.000000 0.000000 1.000000
vn 0.000000 0.000000 1.000000
vn 0.000000 1.000000 0.000000
vn 0.000000 1.000000 0.000000
vn 0.000000 1.000000 0.000000
vn 0.000000 1.000000 0.000000
vn 0.000000 0.000000 -1.000000
vn 0.000000 0.000000 -1.000000
vn 0.000000 0.000000 -1.000000
vn 0.000000 0.000000 -1.000000
vn 0.000000 -1.000000 0.000000
vn 0.000000 -1.000000 0.000000
vn 0.000000 -1.000000 0.000000
vn 0.000000 -1.000000 0.000000
vn 1.000000 0.000000 0.000000
vn 1.000000 0.000000 0.000000
vn 1.000000 0.000000 0.000000
vn 1.000000 0.000000 0.000000
vn -1.000000 0.000000 0.000000
vn -1.000000 0.000000 0.000000
vn -1.000000 0.000000 0.000000
vn -1.000000 0.000000 0.000000
s 1
g pCube1
usemtl initialShadingGroup
f 1/18/1 2/2/2 3/23/3
f 3/23/3 2/2/2 4/21/4
s 2
f 3/3/5 4/22/6 5/20/7
f 5/20/7 4/22/6 6/6/8
s 3
f 5/5/9 6/19/10 7/17/11
f 7/17/11 6/19/10 8/8/12
s 4
f 7/7/13 8/15/14 1/9/15
f 1/9/15 8/15/14 2/10/16
s 5
f 2/16/17 8/11/18 4/4/19
f 4/4/19 8/11/18 6/12/20
s 6
f 7/13/21 1/1/22 5/14/23
f 5/14/23 1/1/22 3/24/24
g default
v -0.500000 -0.500000 0.500000
v 0.500000 -0.500000 0.500000
v -0.500000 0.500000 0.500000
v 0.500000 0.500000 0.500000
v -0.500000 0.500000 -0.500000
v 0.500000 0.500000 -0.500000
v -0.500000 -0.500000 -0.500000
v 0.500000 -0.500000 -0.500000
vt 0.252288 0.001926
vt 0.503719 0.001891
vt 0.747560 0.003169
vt 0.504629 0.251573
vt 0.252498 0.250724
vt 0.997560 0.253169
vt 0.503199 0.250023
vt 0.502498 0.500724
vt 0.503199 0.500023
vt 0.753199 0.500023
vt 0.754629 0.001573
vt 0.754629 0.251573
vt 0.002288 0.001926
vt 0.002288 0.251926
vt 0.753199 0.250023
vt 0.504629 0.001573
vt 0.252498 0.500724
vt 0.253719 0.001891
vt 0.502498 0.250724
vt 0.747560 0.253169
vt 0.503719 0.251891
vt 0.997560 0.003169
vt 0.253719 0.251891
vt 0.252288 0.251926
vn 0.000000 0.000000 1.000000
vn 0.000000 0.000000 1.000000
vn 0.000000 0.000000 1.000000
vn 0.000000 0.000000 1.000000
vn 0.000000 1.000000 0.000000
vn 0.000000 1.000000 0.000000
vn 0.000000 1.000000 0.000000
vn 0.000000 1.000000 0.000000
vn 0.000000 0.000000 -1.000000
vn 0.000000 0.000000 -1.000000
vn 0.000000 0.000000 -1.000000
vn 0.000000 0.000000 -1.000000
vn 0.000000 -1.000000 0.000000
vn 0.000000 -1.000000 0.000000
vn 0.000000 -1.000000 0.000000
vn 0.000000 -1.000000 0.000000
vn 1.000000 0.000000 0.000000
vn 1.000000 0.000000 0.000000
vn 1.000000 0.000000 0.000000
vn 1.000000 0.000000 0.000000
vn -1.000000 0.000000 0.000000
vn -1.000000 0.000000 0.000000
vn -1.000000 0.000000 0.000000
vn -1.000000 0.000000 0.000000
s 1
g pCube1
f 9/42/25 10/26/26 11/47/27
f 11/47/27 10/26/26 12/45/28
s 2
f 11/27/29 12/46/30 13/44/31
f 13/44/31 12/46/30 14/30/32
s 3
f 13/29/33 14/43/34 15/41/35
f 15/41/35 14/43/34 16/32/36
s 4
f 15/31/37 16/39/38 9/33/39
f 9/33/39 16/39/38 10/34/40
s 5
f 10/40/41 16/35/42 12/28/43
f 12/28/43 16/35/42 14/36/44
s 6
f 15/37/45 9/25/46 13/38/47
f 13/38/47 9/25/46 11/48/48
